<?xml version="1.0" encoding="utf-8"?>
<!-- Generator: Adobe Illustrator 27.0.1, SVG Export Plug-In . SVG Version: 6.00 Build 0)  -->
<svg version="1.1" id="Layer_1" xmlns="http://www.w3.org/2000/svg" xmlns:xlink="http://www.w3.org/1999/xlink" x="0px" y="0px"
	 viewBox="0 0 595.28 595.28" style="enable-background:new 0 0 595.28 595.28;" xml:space="preserve">
<style type="text/css">
	.st0{fill:#FFBE2A;}
	.st1{fill:none;stroke:#0C7BFF;stroke-width:3;stroke-miterlimit:10;}
	.st2{fill:none;stroke:#0C6BFF;stroke-width:3;stroke-miterlimit:10;}
	.st3{fill:#FFBE2A;stroke:#0C7BFF;stroke-width:3;stroke-miterlimit:10;}
</style>
<path class="st0" d="M340.32,105.5c0-10.98-16.21-87.7-43.12-87.72c-27.89-0.02-40.62,77.91-44,87.39L340.32,105.5z"/>
<path class="st1" d="M297.2,17.78c-30.26,0-49.22,98.48-49.22,132.94c0,34.47,21.64,81.48,21.64,81.48h27.58h27.58
	c0,0,21.64-47.01,21.64-81.48C346.42,116.25,327.46,17.78,297.2,17.78z"/>
<path class="st0" d="M191.96,131.59c-7.76-7.76-73.47-50.55-92.52-31.53c-19.74,19.71,26.37,83.81,30.68,92.91L191.96,131.59z"/>
<path class="st2" d="M99.44,100.06c-21.4,21.4,34.83,104.44,59.2,128.81c24.37,24.37,72.92,42.32,72.92,42.32l19.5-19.5l19.5-19.5
	c0,0-17.94-48.54-42.32-72.92C203.87,134.89,120.83,78.66,99.44,100.06z"/>
<path class="st0" d="M105.5,254.95c-10.98,0-87.7,16.21-87.72,43.12c-0.02,27.89,77.91,40.62,87.39,44L105.5,254.95z"/>
<path class="st1" d="M17.78,298.08c0,30.26,98.48,49.22,132.94,49.22c34.47,0,81.48-21.64,81.48-21.64v-27.58v-27.58
	c0,0-47.01-21.64-81.48-21.64C116.25,248.86,17.78,267.82,17.78,298.08z"/>
<path class="st0" d="M131.59,403.32c-7.76,7.76-50.55,73.47-31.53,92.52c19.71,19.74,83.81-26.37,92.91-30.68L131.59,403.32z"/>
<path class="st1" d="M100.06,495.84c21.4,21.4,104.44-34.83,128.81-59.2c24.37-24.37,42.32-72.92,42.32-72.92l-19.5-19.5l-19.5-19.5
	c0,0-48.54,17.94-72.92,42.32C134.89,391.4,78.66,474.44,100.06,495.84z"/>
<path class="st0" d="M254.95,489.78c0,10.98,16.21,87.7,43.12,87.72c27.89,0.02,40.62-77.91,44-87.39L254.95,489.78z"/>
<path class="st1" d="M298.08,577.5c30.26,0,49.22-98.48,49.22-132.94c0-34.47-21.64-81.48-21.64-81.48h-27.58h-27.58
	c0,0-21.64,47.01-21.64,81.48C248.86,479.02,267.82,577.5,298.08,577.5z"/>
<path class="st0" d="M403.32,463.69c7.76,7.76,73.47,50.55,92.52,31.53c19.74-19.71-26.37-83.81-30.68-92.91L403.32,463.69z"/>
<path class="st1" d="M495.84,495.22c21.4-21.4-34.83-104.44-59.2-128.81c-24.37-24.37-72.92-42.32-72.92-42.32l-19.5,19.5
	l-19.5,19.5c0,0,17.94,48.54,42.32,72.92C391.4,460.39,474.44,516.61,495.84,495.22z"/>
<path class="st0" d="M489.78,340.32c10.98,0,87.7-16.21,87.72-43.12c0.02-27.89-77.91-40.62-87.39-44L489.78,340.32z"/>
<path class="st1" d="M577.5,297.2c0-30.26-98.48-49.22-132.94-49.22s-81.48,21.64-81.48,21.64v27.58v27.58
	c0,0,47.01,21.64,81.48,21.64S577.5,327.46,577.5,297.2z"/>
<path class="st0" d="M463.69,191.96c7.76-7.76,50.55-73.47,31.53-92.52c-19.71-19.74-83.81,26.37-92.91,30.68L463.69,191.96z"/>
<path class="st1" d="M495.22,99.44c-21.4-21.4-104.44,34.83-128.81,59.2c-24.37,24.37-42.32,72.92-42.32,72.92l19.5,19.5l19.5,19.5
	c0,0,48.54-17.94,72.92-42.32C460.39,203.87,516.61,120.83,495.22,99.44z"/>
<circle class="st3" cx="298.51" cy="297.2" r="72.46"/>
</svg>
