<svg width="132" height="78" viewBox="0 0 132 78" fill="none" xmlns="http://www.w3.org/2000/svg">
<path d="M35.0702 33.3412C36.8406 33.1199 35.2086 20.7083 31.5865 20.2823C28.6759 19.94 25.8672 18.1642 23.3128 20.7176C20.7983 23.2312 19.3658 25.849 18.5711 29.4235C17.0634 36.2059 17.6518 42.8062 17.6518 49.447C17.6518 51.9955 19.7013 55.0178 22.0064 56.1699C23.4412 56.887 24.6985 57.8099 26.361 57.7176C27.6928 57.6437 29.8031 55.1681 28.1028 57.7176" stroke="black" stroke-width="3" stroke-linecap="round"/>
<path d="M54.2303 28.9882C54.2303 26.6268 50.7133 19.832 47.4565 23.0875C43.3616 27.1809 44.6502 33.5428 44.6502 38.7581C44.6502 44.0269 43.0673 52.0836 45.7147 56.847C49.2128 63.1413 57.9189 55.6436 55.1012 54.2352" stroke="black" stroke-width="3" stroke-linecap="round"/>
<path d="M40.2957 2C26.3885 2 10.8332 10.8111 5.0236 23.7163C-0.601525 36.2119 1.9414 45.7984 10.0072 56.3634C14.4542 62.1883 17.2799 66.1661 23.3128 70.3412C28.9397 74.2352 37.2061 76 43.8277 76C55.5114 76 65.8006 68.5527 70.7777 58.1046C76.5764 45.9318 75.0949 28.177 65.0684 18.1542C60.9427 14.0301 56.7724 9.91366 52.4885 5.86928C49.2316 2.79453 41.1643 2 37.6829 2" stroke="black" stroke-width="3" stroke-linecap="round"/>
<path d="M90.8087 25.5059C89.2436 25.7014 91.6796 41.6975 91.6796 43.7882C91.6796 49.0198 92.5505 64.6904 92.5505 59.4588" stroke="black" stroke-width="3" stroke-linecap="round"/>
<path d="M88.196 28.1177C88.6391 28.0685 95.8466 25.3051 96.0342 25.0706C97.9408 22.6884 103.76 27.8395 103.872 29.8589C104.048 33.0086 101.194 37.363 98.647 39.0001C93.4453 42.3427 96.2957 39.4353 100.389 39.4353C103.033 39.4353 106.917 42.797 107.308 45.5295C107.944 49.9824 107.004 51.4921 104.066 54.4288C101.23 57.264 100.781 60.0309 96.5181 61.2484C94.5493 61.8107 92.0005 66.6528 94.2924 62.0706" stroke="black" stroke-width="3" stroke-linecap="round"/>
<path d="M115.194 26.3764C116.31 27.6313 126.753 40.5526 127.194 40.1124C128.793 38.5136 129.013 32.0603 129.129 29.8588C129.204 28.4367 130 21.414 130 26.3764C130 32.4874 126.854 38.5813 126.516 44.6588C126.312 48.3382 126.516 52.0945 126.516 55.783C126.516 56.9973 126.516 64.3913 126.516 61.2" stroke="black" stroke-width="3" stroke-linecap="round"/>
</svg>
