<svg width="62" height="69" viewBox="0 0 62 69" fill="none" xmlns="http://www.w3.org/2000/svg">
<path d="M22.5375 58.5174C22.0118 53.7859 14.001 44.1333 10.6999 40.8323C4.42121 34.5535 2 30.4293 2 20.6513C2 9.40552 10.4169 10.1538 18.6868 11.0243C23.0635 11.485 28.0667 18.4938 30.0965 21.7922C31.8786 24.6881 29.8249 15.6917 30.3104 13.021C31.0553 8.92435 44.2116 2.68156 48.2095 2.11043C59.6787 0.471976 61.3135 17.4919 58.7635 24.8586C55.5948 34.0126 42.4433 37.5422 39.2243 46.3945C37.4606 51.2448 35.6178 55.8689 32.8063 60.0862C30.4873 63.5647 27.6719 72.6202 27.6719 63.6518" stroke="#494848" stroke-width="3" stroke-linecap="round"/>
<path d="M8.41791 8.45709C8.41791 12.3079 8.41791 16.1587 8.41791 20.0095C8.41791 30.5054 10.9851 15.5467 10.9851 20.0095C10.9851 22.8619 10.9851 31.4192 10.9851 28.5668C10.9851 26.5584 11.6045 15.8566 12.9105 22.648C13.6094 26.2823 12.6341 30.737 14.2654 25.1438C16.3839 17.8805 17.0521 27.0971 17.9736 29.993C19.4766 34.7169 19.448 27.1771 19.685 25.4291C20.9211 16.3132 19.9149 26.6595 20.2555 30.2782C20.4346 32.1814 22.2742 44.111 23.5358 35.8405C24.0952 32.1735 23.452 21.025 23.8211 24.716C24.236 28.8651 25.9248 32.8811 27.6719 36.6249C29.3373 40.1937 33.5499 45.1093 30.5956 37.8372C29.3038 34.6573 24.3095 24.9159 19.6137 25.9996C17.2582 26.5432 17.215 36.0349 18.1162 37.8372C19.548 40.7009 16.7341 36.6705 15.4064 35.4126C12.8418 32.9831 16.3642 35.9221 17.4031 36.411C18.9803 37.1532 16.1706 34.437 15.4777 34.129C10.9068 32.0975 18.3681 39.7644 19.2572 40.4757C20.1626 41.2 26.9357 45.3392 26.8161 45.1109C25.9074 43.3761 13.991 28.4747 13.8375 28.5668C10.7464 30.4215 22.8718 45.5281 24.1063 46.965C28.4689 52.0427 32.7109 54.3665 28.0997 46.1093C25.3465 41.1791 21.4214 35.9311 16.9039 32.4176C16.4252 32.0452 17.643 41.8071 18.8293 43.756C21.4863 48.1211 27.5292 51.1361 27.5292 43.6134C27.5292 41.7321 23.013 28.2694 22.6801 28.852C18.4022 36.3382 30.602 45.844 26.103 31.8471C25.3866 29.6183 23.0892 28.8209 21.5391 27.4258C19.7992 25.8599 21.605 26.6565 22.2522 24.8586C23.8463 20.4305 21.1624 17.5849 16.8326 17.5849C15.6241 17.5849 17.09 20.3264 18.9719 19.7242C22.3115 18.6555 21.4231 15.8078 18.4014 15.1603C8.12838 12.9589 7.5705 25.7515 12.9105 24.9299C23.0339 23.3725 11.8739 13.9399 7.91873 19.6529C0.984687 29.6687 20.9238 40.3327 20.6834 29.993C20.6473 28.4414 16.6098 22.0029 14.8359 24.716C10.7718 30.9316 17.6649 39.9109 23.2506 42.2585C30.1117 45.1421 31.8018 37.5655 29.9538 32.4176C28.2518 27.6762 22.0155 23.7949 23.3219 31.6331C26.6454 51.5743 37.6038 19.7491 35.9439 20.2234C34.3842 20.669 28.6055 39.0466 34.3751 28.7094C36.0103 25.7796 37.9406 15.9411 37.9406 19.2963C37.9406 24.0405 33.9242 28.8396 33.0915 33.5585C32.1232 39.0455 34.4275 31.494 34.8029 30.2069C35.2597 28.641 39.4487 15.4925 38.4398 15.089C35.6786 13.9845 23.0826 33.963 34.6603 15.0177C37.5904 10.223 42.1391 10.8292 47.2111 11.0243C56.985 11.4002 48.3388 28.7282 45.6422 32.5602C44.5417 34.1241 42.5177 34.6863 41.1496 36.0544C37.7394 39.4647 42.5521 31.4697 43.1463 30.2069C44.338 27.6746 45.6171 21.4608 47.5676 19.5103C48.1906 18.8873 45.1017 28.3576 44.3586 29.5651C43.851 30.39 38.5437 41.2601 37.9406 41.2601C35.9411 41.2601 39.0784 37.4221 39.7947 35.5552C41.4953 31.1235 43.0081 26.698 44.3586 22.1488C47.9572 10.0273 40.1414 32.6463 38.0119 35.8405C35.5631 39.5137 40.3499 27.3199 41.7914 23.1471C43.8023 17.326 45.0517 17.8573 42.7898 23.8602C40.965 28.7028 36.9609 43.2884 36.657 38.1224C36.3081 32.1903 37.0789 25.8474 39.2242 20.2947C41.3548 14.7803 39.5213 24.1913 39.1529 25.3578C37.9042 29.3119 33.1624 40.689 36.0152 44.683C37.278 46.4509 37.4745 40.5839 38.0119 38.479C38.9693 34.7295 40.035 31.0092 41.0783 27.2832C43.1346 19.9392 38.6367 32.774 37.798 34.2716C33.9553 41.1336 30.3003 48.1148 27.9571 55.6649C27.3141 57.7367 30.2391 52.5242 30.2391 50.8158C30.2391 50.2856 27.8891 56.6633 26.6735 56.6633C23.9875 56.6633 31.4007 49.0837 31.5226 48.9617C38.4984 41.9859 41.7253 29.3477 45.357 20.7226C46.5704 17.8407 48.2094 12.3149 48.2094 9.09889C48.2094 4.10961 44.6241 3.43983 41.2209 7.81529C37.557 12.526 36.7531 11.2514 40.7931 6.88825C43.6633 3.78844 46.3884 1.87704 51.0618 3.60795C56.9946 5.80526 57.1946 11.4386 57.1946 16.7292C57.1946 19.1874 54.9966 22.8366 53.9143 25.0012C53.4941 25.8416 47.508 32.7028 48.9225 32.7028C53.4879 32.7028 54.9118 9.02758 50.7766 9.02758C48.8081 9.02758 54.8463 17.8877 51.9889 7.8866C51.6032 6.53668 51.9215 16.7491 51.7749 18.0128C51.3434 21.7349 51.0595 25.6616 49.2078 28.9946C46.5134 33.8444 48.901 27.4867 49.2078 25.7143C50.529 18.0806 49.0956 7.71351 40.5078 16.3013C35.8176 20.9915 29.5565 34.893 36.5857 22.0062C38.5016 18.4938 28.148 18.8202 26.6735 20.2947C25.5704 21.3978 36.0709 22.5767 26.6735 22.5767C18.0333 22.5767 41.5433 28.4472 30.2391 27.6397C23.7988 27.1797 16.9518 25.2865 10.5572 25.2865C9.81285 25.2865 12.5232 26.7318 11.9835 27.4258C10.9258 28.7856 10.8826 29.7169 10.9851 31.5618C11.2391 36.1329 15.1769 36.7179 17.6883 38.9782C23.9075 44.5755 28.9555 50.467 28.9555 59.2305C28.9555 63.5565 31.3829 51.9348 32.521 49.5322C34.5127 45.3274 35.9759 40.6257 37.9406 36.6962" stroke="#494848" stroke-width="3" stroke-linecap="round"/>
</svg>
