<svg width="169" height="56" viewBox="0 0 169 56" fill="none" xmlns="http://www.w3.org/2000/svg">
<path d="M17.2959 4.60065C17.2959 9.5629 16.2482 16.3133 17.3524 21.2351C18.3703 25.7725 17.2959 29.2375 17.2959 33.3329C17.2959 37.4752 19.8048 41.3385 15.0342 37.0855C12.6031 34.9181 3.88224 30.4523 6.32681 32.6048C9.24428 35.1737 12.865 36.4159 15.2604 39.3818C16.598 41.0381 21.6768 34.6501 22.95 33.3889C24.9802 31.3779 31.053 27.8074 25.4378 30.5885C23.7769 31.4111 15.8584 37.1576 19.3314 38.8777" stroke="#FBE949" stroke-width="3" stroke-linecap="round"/>
<path d="M2.02971 50.9755C7.96657 50.9755 13.9034 50.9755 19.8403 50.9755C22.5562 50.9755 24.4335 51.3705 26.9645 51.9277C30.8964 52.7932 26.873 50.9755 24.929 50.9755C23.37 50.9755 21.3147 48.799 19.5576 50.1914C18.2239 51.2483 15.0554 51.9837 13.2249 51.9837C10.8684 51.9837 1.40318 52.7588 2.02971 54" stroke="#FBE949" stroke-width="3" stroke-linecap="round"/>
<path d="M53.9347 17.7066C53.9347 19.6402 52.807 27.7336 54.9525 28.7963" stroke="#FBE949" stroke-width="3" stroke-linecap="round"/>
<path d="M46.8105 13.674C52.9732 13.8229 63.0945 15.3138 63.0945 22.7474C63.0945 26.8843 59.9517 26.8687 57.4969 29.3003C55.2918 31.4847 50.8815 38.9424 50.8815 35.8533" stroke="#FBE949" stroke-width="3" stroke-linecap="round"/>
<path d="M72.2542 19.7229C63.0795 27.1071 73.018 33.2816 75.8163 28.2922C77.7861 24.7801 73.299 18.6611 71.2365 22.7473" stroke="#FBE949" stroke-width="3" stroke-linecap="round"/>
<path d="M79.3784 20.7311C81.5026 22.899 85.4849 31.1428 85.4849 24.7637C85.4849 19.011 86.5377 22.7821 89.5559 25.7718C90.4084 26.6163 95.5293 30.992 95.6624 27.5641C95.71 26.3378 95.6624 21.0816 95.6624 21.7392" stroke="#FBE949" stroke-width="3" stroke-linecap="round"/>
<path d="M99.7334 20.7311C103.757 32.2186 100.532 23.292 105.84 20.9551C110.868 18.7415 112.553 26.9744 113.982 29.8044" stroke="#FBE949" stroke-width="3" stroke-linecap="round"/>
<path d="M117.035 8.6333C118.521 16.36 119.071 22.9471 119.071 30.8126" stroke="#FBE949" stroke-width="3" stroke-linecap="round"/>
<path d="M134.337 20.7311C126.241 20.9316 125.18 30.883 133.771 27.7881C140.568 25.3401 135.015 18.6031 130.266 21.7392" stroke="#FBE949" stroke-width="3" stroke-linecap="round"/>
<path d="M147.568 16.6985C140.014 18.3819 140.702 26.3138 147.002 22.7474C148.181 22.08 148.528 18.8199 148.585 19.7229C148.753 22.3807 152.118 25.733 153.674 27.7881" stroke="#FBE949" stroke-width="3" stroke-linecap="round"/>
<path d="M164.869 18.7148C158.412 18.7148 160.609 18.7823 157.519 22.5233C155.651 24.7845 157.037 27.0623 159.272 28.2922C162.106 29.8522 168.501 27.8171 166.679 23.7555C165.052 20.1313 163.851 16.1559 163.851 12.1058C163.851 10.0534 160.798 -0.58178 160.798 2.58439" stroke="#FBE949" stroke-width="3" stroke-linecap="round"/>
</svg>
