<svg width="75" height="72" viewBox="0 0 75 72" fill="none" xmlns="http://www.w3.org/2000/svg">
<path d="M33.2119 65.0572C33.2119 63.6157 33.5122 62.6256 32.9055 61.2512C32.6583 60.6912 32.5992 59.8845 32.5992 59.2839C32.5992 58.7525 32.2122 58.191 32.1907 57.722C32.1778 57.4404 32.1547 56.3502 31.7822 56.4764C31.384 56.6113 30.9028 56.4602 30.4887 56.5258C30.2737 56.5599 30.0913 56.8136 29.842 56.8619C29.1899 56.9882 28.7274 57.0835 28.0606 56.9113C27.439 56.7509 26.546 57.0497 25.8821 57.0497C25.2673 57.0497 24.7235 57.0497 24.1234 57.0497C23.5116 57.0497 23.3962 54.5097 23.2497 54.0247C22.988 53.1583 23.0001 52.3462 23.0001 51.4544C23.0001 50.3769 23.1055 50.4421 24.3163 50.6339C25.5128 50.8234 26.5729 50.8618 27.6975 50.4263C28.9036 49.9592 29.8206 49.7541 31.1695 49.7541C32.4157 49.7541 32.4166 49.52 32.3949 48.37C32.3768 47.4038 31.8813 46.5179 31.7936 45.5625C31.6369 43.8561 31.5584 42.1446 31.2149 40.4614C30.8574 38.7095 31.5709 36.7176 31.7709 34.9748C32.0199 32.8057 32.9374 30.3836 33.7338 28.302C34.0191 27.5563 34.4808 26.8079 34.8571 26.0974C35.2106 25.4301 35.5453 24.6956 36.5251 24.664C37.3061 24.6388 37.9614 24.3934 38.7263 24.2982C39.5289 24.1983 40.6474 24.0666 41.3813 23.7743C42.5772 23.298 44.2288 22.8131 45.5682 23.0724C46.9004 23.3303 48.0896 23.0625 49.4487 23.0625C51.6252 23.0625 50.7255 27.5018 50.935 28.7567C51.143 30.0026 50.8779 29.9067 49.755 30.3187C49.1356 30.5459 48.4005 30.6526 47.8261 30.9711C46.4669 31.7247 44.9394 31.0494 43.6279 32.1376C41.9578 33.5235 41.4155 35.693 39.9063 37.1596C38.9658 38.0735 38.7322 39.4982 38.5674 40.6789C38.3544 42.2047 38.3064 43.6836 38.5107 45.1967C38.5653 45.6011 38.4555 48.6797 38.9759 48.8248C39.2247 48.8942 40.2663 48.4064 40.5644 48.291C41.0607 48.0988 41.6121 48.4042 42.2096 48.2415C43.1665 47.981 45.6703 47.3303 45.6703 48.5282C45.6703 50.8817 45.6347 53.2755 45.4661 55.6262C45.4487 55.8687 44.9199 55.3226 44.7512 55.3C44.5265 55.2698 44.02 55.4253 43.7868 55.4878C43.1254 55.6651 42.4809 55.6262 41.7898 55.6262C40.7674 55.6262 38.9305 56.017 38.9305 57.0893C38.9305 58.0334 39.4025 59.144 39.6453 60.0748C39.9364 61.1907 39.9517 62.4893 39.9517 63.6337C39.9517 64.7117 39.9075 65.7985 39.9517 66.8762C39.9586 67.0443 40.1706 68.5427 40.1219 68.5073C38.8604 67.5914 36.814 68.7934 35.4585 68.9621C33.7177 69.1788 33.2443 68.4621 33.2119 66.9355C33.1955 66.1638 33.2042 65.5163 33.019 64.7903C32.9572 64.5479 32.9754 63.5493 33.2119 64.1675" stroke="#494848" stroke-width="3" stroke-linecap="round"/>
<path d="M38.3512 5.47586C36.2286 4.38119 33.5997 3.99377 31.2244 4.5205C29.839 4.82771 28.3252 4.6653 26.9047 4.83557C24.9688 5.06762 23.3489 5.53103 21.531 6.16696C19.7685 6.78349 17.8445 7.72671 16.3864 8.79926C14.2642 10.3602 11.9529 12.2417 10.5084 14.3383C7.83959 18.212 5.96315 22.2919 3.90868 26.4428C2.73608 28.8119 2.41811 31.6491 2.2129 34.1974C1.96822 37.2359 1.86732 40.3632 2.28165 43.3952C2.52035 45.142 3.02204 46.8627 3.49619 48.5683C3.96045 50.2384 4.11994 51.9726 4.61907 53.6297C5.41012 56.256 7.52722 58.5433 9.75222 60.3375C11.9865 62.1391 13.7124 64.509 16.3749 65.8867C19.2715 67.3854 22.7227 67.9195 25.9881 68.4885C28.2826 68.8882 30.6004 69.2355 32.9087 69.5658C34.5869 69.8059 36.2064 70.147 37.9158 69.9317C39.8779 69.6844 41.726 69.2054 43.7135 69.1288C44.8393 69.0853 46.1554 69.0475 47.2426 68.7934C49.5344 68.2576 51.7705 67.225 53.9913 66.4863C54.6206 66.277 55.2333 66.0438 55.8704 65.846C56.9651 65.5061 57.7731 64.7975 58.8151 64.3825C64.0703 62.2896 67.8002 57.8028 69.7001 53.0605C71.6727 48.1369 73 43.143 73 37.8969C73 32.8292 72.3131 27.9591 70.9261 23.0381C68.6493 14.9598 62.7213 4.96812 52.8913 2.74192C51.1331 2.34374 49.086 2 47.2655 2C45.3437 2 43.2544 2.53854 41.3532 2.81307C38.6921 3.19732 35.9659 2.76074 33.3326 3.46352C29.7747 4.41309 27.2673 7.57005 25.7704 10.4152" stroke="#494848" stroke-width="3" stroke-linecap="round"/>
</svg>
