<svg width="78" height="72" viewBox="0 0 78 72" fill="none" xmlns="http://www.w3.org/2000/svg">
<path d="M19.8405 20.9617C19.2652 24.5201 19.9424 28.4657 19.0673 31.9303C18.6873 33.4348 18.7419 35.0669 18.569 36.6069C18.2682 39.2864 17.057 41.6883 17.057 44.4635C17.057 48.0254 16.4931 51.8129 18.9126 54.7519C21.4813 57.8721 25.9953 58 29.7028 58C33.3362 58 37.2002 56.608 40.8022 55.9253C42.462 55.6107 44.2781 55.7678 45.9739 55.5512C47.6793 55.3334 49.4411 54.8461 51.0769 54.3268C53.1361 53.6731 56.3828 52.2395 57.1077 50.0073C58.6329 45.3108 57.674 40.899 57.8981 36.1307C58.0112 33.7241 58.055 31.5489 57.8981 29.1414C57.8048 27.7103 57.2935 26.2926 57.2624 24.873C57.2123 22.5923 57.1461 19.4689 55.8535 17.4585C52.6498 12.4758 47.8582 14.3945 42.7953 14.2275C37.0602 14.0382 30.637 13.3626 25.4245 16.2001C24.5155 16.6949 23.3344 17.7554 22.2974 17.8837C21.681 17.9599 20.851 17.6828 20.3903 18.1388C19.4248 19.0944 20.1497 22.1861 20.1497 22.1861" stroke="black" stroke-width="3" stroke-linecap="round"/>
<path d="M39.9951 28.3133C38.7312 28.8208 35.3683 28.8169 34.5815 30.193C33.6815 31.7671 32.2986 33.0485 32.01 34.962C31.3722 39.1908 29.4796 43.3395 33.4649 46.4146C34.9852 47.5876 37.5361 48.5242 39.3861 47.6678C41.4255 46.7236 42.9294 45.6584 44.5629 43.9779C45.5444 42.968 45.9237 41.9477 46.1531 40.5317C46.4108 38.9409 46.9634 37.0236 46.999 35.4494C47.0562 32.9204 44.6443 30.7293 43.0403 29.0791C42.3901 28.4102 41.422 28.6733 40.6042 28.6266C40.0905 28.5972 39.724 28 39.0816 28" stroke="#494848" stroke-width="3" stroke-linecap="round"/>
<path d="M49.4038 21C48.9733 21.6957 48.3616 22.4463 49.0984 23.1538C49.3198 23.3665 49.6908 23.3513 49.8481 23.0769C50.0619 22.704 49.9505 21.9363 49.5982 21.6923C47.9156 20.527 48.6402 24.2911 49.6537 23.4103C50.2219 22.9165 49.2414 21.7141 48.9595 21.9744C47.9651 22.8926 50.541 22.1774 49.5426 21.7436C48.644 21.3531 49.0073 22.9979 49.6537 22.1026C50.0779 21.515 48.8544 22.0672 48.904 22.8462C48.9353 23.3369 49.8602 22.7444 48.8485 22.3333C48.7258 22.2835 48.2868 21.8656 48.2098 22.0256C48.0209 22.4182 48.1523 23.0524 48.4597 23.359C49.2635 24.1606 49.7138 23.3748 49.9592 22.6667C50.1634 22.0773 49.5528 22.1255 49.2094 21.8718C48.6523 21.4602 46.823 24 49.1539 24C49.4529 24 49.7049 20.9982 48.6541 22.6154" stroke="black" stroke-width="3" stroke-linecap="round"/>
<path d="M27.6844 6.96428C26.1399 7.37422 24.6422 7.50388 23.0245 7.34602C20.7969 7.12865 18.8558 7.68689 16.8256 8.47931C15.3661 9.04901 14.2108 9.55927 13.0287 10.4119C11.6142 11.432 10.4665 12.6481 9.04472 13.6686C1.95572 18.7569 3.03726 26.2804 2.11237 33.2805C1.73134 36.1644 2.3947 39.0369 2.97532 41.8577C3.892 46.311 5.74374 50.1641 8.41189 54.1091C9.52838 55.7599 10.373 57.622 11.7486 59.1433C13.5132 61.0948 16.2163 62.6118 18.5084 64.094C21.5784 66.0793 24.71 68.0479 28.4754 69.0089C30.2542 69.4629 32.135 69.9774 34.0126 69.999C35.9898 70.0218 37.9713 69.6319 39.9382 69.498C43.2313 69.2738 46.713 68.5195 49.6032 67.1599C51.1373 66.4382 52.8705 65.8719 54.3063 65.0245C55.6259 64.2457 56.6919 63.1797 57.8587 62.2569C60.0574 60.518 62.6678 59.1216 64.6041 57.163C66.6552 55.0883 68.5158 52.8075 70.3139 50.578C75.0263 44.7352 76.7892 37.9503 75.6786 30.99C74.9464 26.4013 74.1034 21.0995 70.6016 17.319C67.2955 13.7498 63.1615 10.944 59.1676 7.95442C55.5019 5.21061 50.1893 3.035 45.2597 2.62199C39.8881 2.17195 32.0634 0.992428 27.4111 3.8865C26.4728 4.47021 18.3344 11.4486 18.3645 11.4736" stroke="#494848" stroke-width="3" stroke-linecap="round"/>
<path d="M21.7143 17.2785C21.4252 18.7757 21.0598 20.0261 20.4074 21.3445C19.71 22.7538 19.9129 23.9029 19.8571 25.48C19.7264 29.1784 19.8205 33.5177 18.9974 37.1566C18.1086 41.0857 18 44.8151 18 48.868C18 50.251 18.0213 51.6646 18.5503 52.934C18.9882 53.9849 19.2213 56.1297 20.6481 56.3918C22.1539 56.6685 23.3103 56.0848 24.9815 56.3918C26.3186 56.6375 27.2644 57 28.6614 57C30.0394 57 31.2301 56.8601 32.5476 56.6699C34.1972 56.4317 36.2044 56.7104 37.8095 56.305C39.0463 55.9925 39.9786 55.2516 41.2831 55.0539C42.4537 54.8765 43.7593 54.5307 44.9286 54.4979C46.6937 54.4483 48.542 54.1914 50.1905 53.4901C51.3003 53.0179 54.2008 53.0699 54.5926 51.9262C55.3974 49.5768 55.7841 47.2585 56.0542 44.8021C56.4689 41.0309 57 37.4005 57 33.5598C57 30.4266 56.6905 27.1916 56.6905 24.142C56.6905 22.9364 56.4153 21.7399 56.4153 20.5626C56.4153 19.679 56.9335 18.9622 56.5357 18.0778C55.9436 16.7616 55.8945 15.7108 54.0767 16.0448C52.9052 16.2601 52.1697 16.4983 51.2566 15.5757C51.1518 15.4697 48.2969 15.3641 48.0238 15.4714C47.1596 15.811 45.5633 15.5757 44.619 15.5757C43.3516 15.5757 42.1821 15.225 40.9048 15.0891C37.919 14.7716 35.4764 15.3524 32.3929 16.0448C30.0604 16.5686 27.766 17.2785 25.2738 17.2785C23.6717 17.2785 23.2844 17.7995 22.1786 18.6686C21.715 19.0329 21.0404 20.1844 20.7857 19.1551" stroke="#494848" stroke-width="3" stroke-linecap="round"/>
<path d="M30.2574 15.1022C30.4987 15.1022 32.4152 15.0815 32.092 15.1022C31.5852 15.1346 31.2001 15.6013 30.7161 15.7115C29.7921 15.922 28.8806 16.1296 27.9643 16.3383C27.4593 16.4533 26.5598 17.1859 26.2147 17.5397C25.4811 18.2915 27.8008 16.1348 28.7287 15.6593C29.6906 15.1664 30.3498 15.861 31.3276 15.4156C31.8428 15.1809 33.0693 13.9256 33.6208 14.6321C34.5508 15.8236 35.7098 13.3085 36.3556 14.3013C36.4508 14.4477 33.5998 14.3859 34.7079 14.1794C35.8943 13.9583 36.637 14.5413 37.5956 15.0325C38.4373 15.4639 39.214 15.1022 40.0416 15.1022C42.2015 15.1022 44.2379 15.4156 46.3096 15.4156C47.6968 15.4156 48.8839 14.8387 50.1995 14.7888C51.7772 14.7289 52.0706 14.186 52.2719 16.0423C52.2907 16.2159 52.513 16.6147 52.7475 16.4602C53.0903 16.2343 52.2402 15.2742 52.119 15.1022C51.5014 14.2257 51.0607 13.765 50.1995 13.2218C49.1819 12.58 48.1833 13.5352 47.074 13.5352C45.5661 13.5352 44.9455 14.5526 43.5578 14.7714C42.137 14.9954 41.2623 14.7888 39.8888 14.7888C39.3598 14.7888 39.1085 14.787 38.8016 15.2589C38.5106 15.7063 36.9011 16.0423 37.4257 16.0423C38.9909 16.0423 40.3859 15.4156 41.9441 15.4156C42.8213 15.4156 43.9227 15.5936 44.7808 15.3982C45.9487 15.1322 46.5597 14.4754 47.8384 14.4754C49.0493 14.4754 49.7141 14.1888 50.896 14.458C51.714 14.6443 52.0242 16.4399 52.7475 16.6517C54.0932 17.0458 53.7366 18.2683 54.4801 19.1066C55.958 20.7728 55.6352 21.1669 55.6352 23.2503C55.6352 24.8087 56.1112 25.4971 56.7053 26.8369C57.3316 28.2491 57.164 30.0478 57.164 31.5726C57.164 32.5811 57.3289 33.5516 57.6226 34.515C57.9663 35.6421 57.6918 36.884 57.8434 38.0493C58.1951 40.7529 57.8934 43.3694 57.5377 46.0582C57.2989 47.8627 57.2378 49.5695 57.164 51.3858C57.0805 53.44 57.0356 47.2342 56.4845 45.2573C56.1049 43.8956 56.2467 42.4118 56.2467 40.9917C56.2467 40.5819 56.3074 39.243 56.3146 39.268C56.7936 40.9247 56.5525 42.8349 56.5525 44.5435C56.5525 46.1067 57.164 47.3669 57.164 44.7698C57.164 43.2747 56.8582 41.7172 56.8582 40.1734C56.8582 39.7141 56.7077 36.7302 56.5694 38.502C56.4482 40.0553 57.1057 41.6324 56.7903 43.168C56.6251 43.9721 56.5525 44.678 56.5525 45.501C56.5525 46.6857 56.2467 47.8263 56.2467 48.9657C56.2467 50.4907 54.9791 54.9362 55.4823 50.7068C55.6199 49.5501 55.6352 48.4222 55.6352 47.2595C55.6352 46.2908 55.4399 48.8392 55.3974 49.1224C55.1392 50.8426 55.0969 51.7676 53.8007 53.0224C53.3723 53.437 51.8035 53.8087 51.2187 53.98C50.2999 54.249 49.8345 54.8525 48.7557 54.6068C47.8345 54.3969 46.8714 55.492 45.9189 55.5295C44.913 55.5692 43.4177 56.1969 42.4877 55.7733C40.736 54.9753 38.2354 56.2288 36.6783 57.0268C34.9108 57.9326 32.1087 58.1585 30.0876 57.8625C27.5157 57.486 25.0946 56.0558 22.5456 56.1563C21.7484 56.1877 21.9446 57.0377 22.3757 57.4795C22.9463 58.0643 23.5557 58.0366 24.2952 58.0366C24.8972 58.0366 25.6429 57.9109 26.2147 58.1063C26.4094 58.1728 27.3849 58.9351 27.3018 58.9594C26.2396 59.2705 24.3233 57.7159 23.7177 56.9572C22.8526 55.8735 25.5937 57.7233 26.4355 57.7233C27.2039 57.7233 27.6848 58.2486 28.4229 58.3326C28.9857 58.3967 30.6587 58.1665 30.1215 58.35C29.2322 58.6539 26.0573 59.5624 28.4229 58.35C29.8329 57.6275 31.1957 56.6656 32.6865 56.1563C34.0304 55.6972 35.1821 57.3106 36.3556 56.609C37.1491 56.1345 38.2608 54.8663 39.4301 55.2858C41.4847 56.0228 42.7906 55.0223 44.6959 54.659C45.4099 54.5228 46.5952 54.3961 47.2609 54.7635C48.4137 55.3997 49.0454 54.3873 50.1316 54.276C50.8427 54.2031 51.3908 53.6492 52.119 53.6492C52.7043 53.6492 53.2069 53.9626 53.8007 53.9626" stroke="#494848" stroke-width="3" stroke-linecap="round"/>
</svg>
