<svg width="179" height="49" viewBox="0 0 179 49" fill="none" xmlns="http://www.w3.org/2000/svg">
<path d="M4.36766 26.2837C-0.201414 26.8549 4.28487 34.0508 8.19652 34.0508C12.0719 34.0508 12.7241 26.2837 8.79819 26.2837C5.56042 26.2837 6.10083 30.5958 8.30591 28.2529C8.86414 27.6597 8.98212 25.4086 7.75893 25.4086C6.20769 25.4086 6.53446 27.6176 7.10256 27.0495C8.98994 25.1621 5.84571 27.7648 6.39149 29.675C6.69665 30.7431 8.19652 30.1742 8.19652 29.1827C8.19652 27.6103 5.78981 26.5079 5.78981 28.4717C5.78981 32.1586 7.65921 30.222 8.30591 30.222" stroke="#F4737E" stroke-width="3" stroke-linecap="round"/>
<path d="M27.0126 23.33C18.8217 24.24 25.9258 34.1849 30.4585 30.6595C32.8761 28.7792 31.1569 26.0826 28.4894 27.2682C25.7801 28.4724 24.6323 35.2123 28.7629 33.9414C31.6648 33.0485 32.7342 27.4767 28.9817 27.2682C24.5525 27.0221 28.0586 29.8372 26.9032 27.8152C24.2267 23.1313 22.6154 29.3872 24.4965 28.581C26.2067 27.848 25.1237 24.154 24.0589 26.2836" stroke="#F4737E" stroke-width="3" stroke-linecap="round"/>
<path d="M48.673 22.3455C45.6612 22.3455 42.5994 23.1066 44.2424 26.7213C45.2732 28.989 50.4568 30.6188 49.6028 26.776C48.44 21.5432 42.875 26.1654 42.875 29.675C42.875 34.7457 49.5481 33.5754 49.5481 29.7844C49.5481 28.1039 44.5711 26.5577 46.4851 28.4716C47.1142 29.1007 45.8097 26.5086 44.9535 27.4871C44.5377 27.9623 45.7193 29.7933 45.7193 27.7606C45.7193 26.2963 44.4919 25.8529 43.969 27.4871C42.7746 31.2193 46.062 27.9319 46.7039 28.2528" stroke="#F4737E" stroke-width="3" stroke-linecap="round"/>
<path d="M69.3489 8.56152C69.3489 12.8457 76.1028 32.3291 76.2408 32.191" stroke="#F4737E" stroke-width="3" stroke-linecap="round"/>
<path d="M92.9782 22.3455C85.9427 24.2642 81.2777 32.1911 91.4467 32.1911C96.5709 32.1911 97.2271 23.33 91.0091 23.33" stroke="#F4737E" stroke-width="3" stroke-linecap="round"/>
<path d="M111.685 20.3763C109.297 20.9872 104.149 22.0605 103.808 25.2992C103.567 27.5904 106.798 25.1542 107.2 24.7522C111.16 20.7916 110.794 26.6744 114.639 29.2374" stroke="#F4737E" stroke-width="3" stroke-linecap="round"/>
<path d="M128.423 18.4072C125.468 18.4072 119.304 23.3498 123.5 26.0649C127.951 28.9449 129.934 26.9427 129.352 22.2907C128.762 17.5688 126.564 13.0053 124.977 8.56155C124.41 6.97561 123.5 -1.20206 123.5 4.6233" stroke="#F4737E" stroke-width="3" stroke-linecap="round"/>
<path d="M135.314 16.4381C135.508 18.5723 137.077 30.8432 138.268 27.2683" stroke="#F4737E" stroke-width="3" stroke-linecap="round"/>
<path d="M129.407 1.66968H130.392" stroke="#F4737E" stroke-width="3" stroke-linecap="round"/>
<path d="M140.237 15.4535C143.67 17.3607 144.176 30.4843 144.176 26.5572C144.176 23.7503 143.303 17.9556 145.379 15.6723C149.629 10.9974 153.623 26.6821 154.021 26.2837" stroke="#F4737E" stroke-width="3" stroke-linecap="round"/>
<path d="M166.82 15.4535C165.232 15.4535 161.854 14.7081 161.132 16.6569C160.146 19.3183 159.397 22.3201 160.968 24.8069C163.297 28.4941 166.332 28.5436 168.571 24.3146C169.557 22.4514 167.914 15.9162 167.914 18.0243C167.914 20.1592 170.753 23.0931 171.743 24.8616C174.192 29.2351 175.715 34.6884 176.447 39.63C177.503 46.7579 165.646 48.5129 166.82 44.9904" stroke="#F4737E" stroke-width="3" stroke-linecap="round"/>
</svg>
