<svg width="85" height="87" viewBox="0 0 85 87" fill="none" xmlns="http://www.w3.org/2000/svg">
<circle cx="42.5" cy="44.5" r="42.5" fill="#FBE949"/>
<path d="M22.4001 56.4615C22.4001 51.8015 26.7475 47.549 27.5701 43.0249C29.0153 35.0761 30.454 28.2075 35.6268 21.7416C36.2375 20.9782 37.386 20.4095 37.5426 21.5054C37.8697 23.7952 40.2874 25.0113 41.7677 26.4916C43.3817 28.1056 44.8158 29.8759 46.2554 31.6353C47.619 33.302 49.5195 34.3867 50.743 36.2541C53.0338 39.7507 55.0914 43.9546 57.8287 47.0139C59.086 48.4192 59.5586 51.026 60.663 52.6825" stroke="black" stroke-width="3" stroke-linecap="round"/>
<path d="M40.8232 3.08252C31.1545 3.08252 22.4145 6.26247 15.1047 12.6351C10.7918 16.3951 7.92468 23.9398 5.63084 29.0372C3.65106 33.4367 3.72338 37.6957 4.8173 42.2901C5.79993 46.4172 7.11987 50.3525 8.46512 54.3883C9.0968 56.2833 9.31601 58.2996 10.3546 60.0306C11.6264 62.1503 13.2944 63.8038 14.7373 65.8042C17.0962 69.0745 19.9578 74.0542 23.4501 76.1178C29.7436 79.8367 36.9515 82.1593 44.3136 81.2615C51.9219 80.3337 59.8258 79.3175 65.9643 74.202C70.6096 70.331 74.7078 63.7848 77.8263 58.5872C79.1651 56.3559 79.0736 53.0928 79.7946 50.6093C80.7171 47.4318 81.3373 44.2361 81.9203 40.9779C82.8186 35.9579 79.9339 31.8588 77.4327 27.6463C72.5904 19.491 69.1338 8.82218 59.5085 4.97205C55.3493 3.30839 51.3126 3.73733 47.0691 2.61014C44.4482 1.91397 42.1699 1.44148 39.4061 1.71787C36.7673 1.98174 34.9421 2.88682 32.3203 2.13776" stroke="black" stroke-width="3" stroke-linecap="round"/>
</svg>
