<svg width="125" height="156" viewBox="0 0 125 156" fill="none" xmlns="http://www.w3.org/2000/svg">
<path d="M93.7932 26.4037C98.3592 22.6618 101.101 16.9282 102.38 11.167C103.062 8.08874 105.575 4.94092 105.963 2.025C106.036 1.47825 113.583 10.0558 114.617 12.3859C115.763 14.9697 123 19.4684 123 21.5279" stroke="#494848" stroke-width="3" stroke-linecap="round"/>
<path d="M13.3829 97.5229C13.3829 106.287 14.8457 117.742 12.4312 126.11" stroke="#494848" stroke-width="3" stroke-linecap="round"/>
<path d="M2 103.798C5.59326 105.606 8.64417 108.268 10.3448 112.165" stroke="#494848" stroke-width="3" stroke-linecap="round"/>
<path d="M16.3179 94.0367C16.3179 96.5406 15.0302 104.295 16.5635 106.99C18.7446 110.825 22.6297 107.263 23.8091 104.831C26.0269 100.259 19.4253 92.3733 15.2126 95.1162" stroke="#494848" stroke-width="3" stroke-linecap="round"/>
<path d="M23.5574 93.8198C25.0276 100.357 32.0807 108.985 36.4316 99.7952C38.3081 95.8317 31.819 88.0444 30.7245 90.2345" stroke="#494848" stroke-width="3" stroke-linecap="round"/>
<path d="M25.6909 120.532C20.7525 122.736 15.7398 127.437 19.0718 133.364C21.6143 137.886 24.3322 127.239 24.5877 126.2C25.4139 122.842 24.0664 121.622 26.3038 123.896C27.8667 125.484 29.4099 126.234 31.2068 125.017" stroke="#494848" stroke-width="3" stroke-linecap="round"/>
<path d="M29.8162 113.889C30.5717 117.169 31.1613 120.803 34.519 122.603C35.2331 122.986 33.4011 117.975 33.3433 116.379C33.2728 114.43 34.519 108.909 34.519 109.408" stroke="#494848" stroke-width="3" stroke-linecap="round"/>
<path d="M46.3855 117.743C42.6826 114.768 40.7073 111.327 42.0699 106.623C42.6607 104.584 42.5658 101.997 44.672 103.602C48.1986 106.288 45.8622 109.788 44.1008 112.304" stroke="#494848" stroke-width="3" stroke-linecap="round"/>
<path d="M43.7241 138.661C46.9135 142.826 50.9232 148.102 51.6578 151.276C53.5128 159.292 51.1237 147.323 50.5153 144.694C49.8178 141.68 50.9486 135.449 54.26 140.855C55.6204 143.075 58.6663 150.467 59.7184 147.436" stroke="#494848" stroke-width="3" stroke-linecap="round"/>
<path d="M66.6725 140.448C63.4337 142.588 59.5902 143.369 58.4696 138.764C58.0684 137.116 58.5178 133.089 59.8163 131.857C61.8213 129.956 63.3237 131.467 63.8565 133.657C64.6184 136.787 62.0796 136.62 61.1631 138.358" stroke="#494848" stroke-width="3" stroke-linecap="round"/>
<path d="M66.6724 128.854C67.5796 132.015 70.1494 141.298 70.1494 137.939C70.1494 135.535 69.2801 133.427 69.2801 131.035C69.2801 129.93 69.2801 122.5 69.2801 126.674" stroke="#494848" stroke-width="3" stroke-linecap="round"/>
<path d="M82.6668 129.663C74.2259 139.864 71.1795 128.795 73.897 121.383C75.4949 117.024 77.69 123.043 77.8096 125.077C77.9822 128.009 76.5785 128.549 75.3811 130.81" stroke="#494848" stroke-width="3" stroke-linecap="round"/>
<path d="M39.5518 136.569L43.7242 141.45" stroke="#494848" stroke-width="3" stroke-linecap="round"/>
<path d="M65.9771 95.4312C70.0395 92.4881 74.5454 91.5519 77.8276 87.9192C79.2484 86.3466 82.6048 83.3734 83.0122 81.5474C83.3511 80.0284 87.3063 75.7891 88.4661 74.3037C91.0613 70.98 95.6629 71.0845 98.4314 68.6026C103.583 63.9839 108.397 51.0619 108.397 44.1215C108.397 40.4996 108.397 36.8777 108.397 33.2559C108.397 31.5824 107.185 23.0867 107.185 27.8231" stroke="#494848" stroke-width="3" stroke-linecap="round"/>
</svg>
